<svg width="28" height="28" viewBox="0 0 28 28" fill="none" xmlns="http://www.w3.org/2000/svg">
<path d="M13.9998 24.7165C13.8408 24.7165 6.41677 24.7165 6.41677 24.7165C5.93716 24.7165 5.53728 24.4922 5.34703 24.1167C5.15682 23.7411 5.21271 23.286 5.49654 22.8993L6.44958 21.6046C4.42882 19.5978 3.28345 16.8668 3.28345 14C3.28345 8.09086 8.09081 3.28345 13.9998 3.28345C19.909 3.28345 24.7165 8.09086 24.7165 14C24.7165 19.9091 19.909 24.7165 13.9998 24.7165ZM13.9998 23.0758C19.0044 23.0758 23.0758 19.0045 23.0758 14C23.0758 8.9955 19.0044 4.92407 13.9998 4.92407C8.99545 4.92407 4.92407 8.9955 4.92407 14C4.92407 16.6439 6.07437 19.1513 8.08003 20.8794L8.65556 21.3753L7.40377 23.0758H13.9998Z" fill="#777E9C"/>
</svg>
