<?xml version="1.0" encoding="UTF-8"?>
<svg version="1.1" viewBox="0 0 2048 2048" width="1280" height="1280" xmlns="http://www.w3.org/2000/svg">
<path transform="translate(1017,181)" d="m0 0 31 1 25 3 28 6 20 6 25 10 17 8 17 10 11 7 12 8 23 16 15 10 16 11 22 15 23 16 15 10 23 16 15 10 23 16 15 10 23 16 15 10 23 16 15 10 23 16 15 10 23 16 15 10 23 16 15 10 23 16 15 10 23 16 15 10 23 16 15 10 23 16 12 8 20 14 12 9 11 9 13 12 12 12 7 8 14 18 12 18 9 16 8 16 8 18 9 27 6 26 3 21 2 31v727l-2 30-5 30-7 26-8 22-12 26-13 22-9 13-9 12-12 14-12 13-14 13-14 11-15 11-25 15-27 13-25 9-23 6-27 5-19 2-20 1h-1101l-33-1-26-3-24-5-29-9-20-8-16-8-20-11-16-11-14-11-13-11-24-24-9-11-15-20-12-20-12-23-9-23-6-18-6-25-4-28-1-13-1-34v-671l1-47 3-28 6-29 6-21 11-28 11-22 11-18 12-17 13-16 9-10 18-18 14-11 13-10 16-11 41-28 22-15 23-16 12-8 19-13 22-15 23-16 12-8 19-13 22-15 23-16 12-8 19-13 22-15 23-16 12-8 19-13 22-15 23-16 12-8 19-13 22-15 23-16 12-8 19-13 22-15 23-16 21-13 21-11 27-11 23-7 28-6 24-3zm-190 1312-24 1-11 3-12 9v2h-2l-6 10-3 10v16l4 12 7 9 8 7 9 4 11 2h433l10-2 10-5 9-8 6-10 3-9v-16l-4-11-5-8-4-5-11-7-5-2-6-1-84-1z"/>
</svg>
