<svg width="29" height="28" viewBox="0 0 29 28" fill="none" xmlns="http://www.w3.org/2000/svg">
<path d="M14.5071 23.1468C11.6951 23.1468 8.883 22.7296 6.21576 21.8953C5.20197 21.5683 4.42956 20.9031 4.09163 20.035C3.74163 19.1669 3.86232 18.2085 4.41749 17.3517L5.80542 15.1982C6.09507 14.7473 6.36059 13.8453 6.36059 13.3154V10.0571C6.36059 5.86295 10.0175 2.44678 14.5071 2.44678C18.9968 2.44678 22.6537 5.86295 22.6537 10.0571V13.3154C22.6537 13.834 22.9192 14.7473 23.2089 15.2095L24.5847 17.3517C25.1037 18.1634 25.2002 19.1443 24.8502 20.035C24.5002 20.9257 23.7399 21.6022 22.7865 21.8953C20.1313 22.7296 17.3192 23.1468 14.5071 23.1468ZM14.5071 4.13795C11.0192 4.13795 8.17094 6.78746 8.17094 10.0571V13.3154C8.17094 14.1384 7.80887 15.3561 7.36231 16.0664L5.97438 18.2198C5.70887 18.637 5.63645 19.0767 5.79335 19.4487C5.93818 19.8321 6.30025 20.1252 6.79507 20.283C11.8399 21.8615 17.1865 21.8615 22.2313 20.283C22.6658 20.1478 23.0037 19.8433 23.1606 19.4375C23.3175 19.0316 23.2813 18.5919 23.0399 18.2198L21.652 16.0664C21.1933 15.3335 20.8433 14.1272 20.8433 13.3041V10.0571C20.8433 6.78746 18.0071 4.13795 14.5071 4.13795Z" fill="#AFB9D2"/>
<path d="M16.7515 4.44233C16.667 4.44233 16.5825 4.43106 16.4981 4.40851C16.1481 4.31831 15.8101 4.25066 15.4843 4.20557C14.4584 4.08155 13.4687 4.14919 12.5394 4.40851C12.2015 4.50998 11.8394 4.40851 11.6101 4.17174C11.3808 3.93498 11.3084 3.59674 11.4412 3.29233C11.936 2.10851 13.1429 1.33057 14.5187 1.33057C15.8946 1.33057 17.1015 2.09723 17.5963 3.29233C17.717 3.59674 17.6567 3.93498 17.4274 4.17174C17.2463 4.35213 16.9929 4.44233 16.7515 4.44233Z" fill="#AFB9D2"/>
<path d="M14.5073 25.7172C13.3125 25.7172 12.1539 25.2662 11.309 24.477C10.4642 23.6878 9.98145 22.6054 9.98145 21.4893H11.7918C11.7918 22.1545 12.0814 22.8084 12.5883 23.2819C13.0952 23.7554 13.7952 24.026 14.5073 24.026C16.0039 24.026 17.2228 22.8873 17.2228 21.4893H19.0332C19.0332 23.8231 17.0056 25.7172 14.5073 25.7172Z" fill="#AFB9D2"/>
</svg>
