<svg width="23" height="23" viewBox="0 0 23 23" fill="none" xmlns="http://www.w3.org/2000/svg">
<path d="M15.055 12.1804C15.9945 11.4412 16.6803 10.4275 17.0169 9.28042C17.3535 8.13332 17.3242 6.90981 16.9331 5.78013C16.542 4.65045 15.8085 3.67077 14.8346 2.97738C13.8608 2.28399 12.695 1.91138 11.4996 1.91138C10.3041 1.91138 9.13835 2.28399 8.1645 2.97738C7.19066 3.67077 6.45715 4.65045 6.06602 5.78013C5.6749 6.90981 5.6456 8.13332 5.98222 9.28042C6.31883 10.4275 7.00461 11.4412 7.94415 12.1804C6.33423 12.8254 4.92951 13.8952 3.87976 15.2757C2.83001 16.6563 2.17457 18.2958 1.98332 20.0196C1.96948 20.1454 1.98056 20.2728 2.01593 20.3943C2.0513 20.5159 2.11027 20.6293 2.18947 20.7281C2.34942 20.9276 2.58207 21.0554 2.83624 21.0833C3.0904 21.1113 3.34526 21.0371 3.54476 20.8772C3.74425 20.7172 3.87203 20.4846 3.89999 20.2304C4.11042 18.357 5.00369 16.6269 6.40911 15.3705C7.81454 14.1141 9.6336 13.4195 11.5187 13.4195C13.4039 13.4195 15.2229 14.1141 16.6284 15.3705C18.0338 16.6269 18.9271 18.357 19.1375 20.2304C19.1635 20.4659 19.2759 20.6834 19.4529 20.8409C19.6299 20.9984 19.8589 21.0847 20.0958 21.0833H20.2012C20.4525 21.0544 20.6821 20.9274 20.84 20.7299C20.998 20.5325 21.0715 20.2806 21.0446 20.0291C20.8524 18.3005 20.1935 16.6568 19.1383 15.2741C18.0832 13.8914 16.6716 12.822 15.055 12.1804ZM11.4996 11.5C10.7414 11.5 10.0003 11.2752 9.36988 10.8539C8.7395 10.4327 8.24817 9.83405 7.95803 9.1336C7.6679 8.43315 7.59198 7.66239 7.73989 6.9188C7.8878 6.1752 8.25289 5.49217 8.78899 4.95607C9.3251 4.41997 10.0081 4.05488 10.7517 3.90697C11.4953 3.75906 12.2661 3.83497 12.9665 4.12511C13.667 4.41524 14.2657 4.90657 14.6869 5.53696C15.1081 6.16735 15.3329 6.90848 15.3329 7.66664C15.3329 8.68331 14.929 9.65833 14.2101 10.3772C13.4913 11.0961 12.5162 11.5 11.4996 11.5Z" fill="#AAB2C8"/>
</svg>
